# xmcd CD database file
#
# Track frame offsets:
#	150
#	19550
#	37630
#	59892
#	77342
#	93742
#	108880
#	130752
#	150180
#	171302
#	189607
#	208850
#	234967
#	267002
#
# Disc length: 4440 seconds
#
# Revision: 7
# Processed by: cddbd v1.5.2PL0 Copyright (c) Steve Scherf et al.
# Submitted via: CDex 1.70beta2
#
DISCID=a811560e
DTITLE=Janne Da Arc - JOKER
DYEAR=2005
DGENRE=Rock
TTITLE0=in silence
TTITLE1=ツメタイカゲロウ
TTITLE2=月光花
TTITLE3=D DROP
TTITLE4=HELL or HEAVEN ～愛しのPsycho Breaker～
TTITLE5=仮面
TTITLE6=I'm so Happy
TTITLE7=WILD FANG
TTITLE8=easy funky crazy
TTITLE9=Mr. Trouble Maker
TTITLE10=Love is Here
TTITLE11=風にのって
TTITLE12=ダイヤモンドヴァージン
TTITLE13=CCCD
EXTD=YEAR: 2005
EXTT0=
EXTT1=
EXTT2=
EXTT3=
EXTT4=
EXTT5=
EXTT6=
EXTT7=
EXTT8=
EXTT9=
EXTT10=
EXTT11=
EXTT12=
EXTT13=
PLAYORDER=
